<svg width="18" height="18" viewBox="0 0 18 18" fill="none" xmlns="http://www.w3.org/2000/svg">
<path d="M17.3285 17.3327L17.3327 17.332V11.2195C17.3327 8.22921 16.6889 5.92574 13.1931 5.92574C11.5125 5.92574 10.3848 6.84796 9.92435 7.72227H9.87574V6.2049H6.56115V17.332H10.0125V11.8223C10.0125 10.3716 10.2875 8.9688 12.0841 8.9688C13.8542 8.9688 13.8806 10.6244 13.8806 11.9153V17.3327H17.3285Z" fill="white"/>
<path d="M0.941011 6.2056H4.39657V17.3327H0.941011V6.2056Z" fill="white"/>
<path d="M2.6674 0.666016C1.56254 0.666016 0.666016 1.56254 0.666016 2.6674C0.666016 3.77227 1.56254 4.68754 2.6674 4.68754C3.77227 4.68754 4.66879 3.77227 4.66879 2.6674C4.6681 1.56254 3.77157 0.666016 2.6674 0.666016Z" fill="white"/>
</svg>
