<svg width="20" height="20" viewBox="0 0 20 20" fill="none" xmlns="http://www.w3.org/2000/svg">
<path fill-rule="evenodd" clip-rule="evenodd" d="M11.9998 15.5827C12.5832 15.9994 13.3332 15.666 13.3332 14.916V11.166L10.2498 14.2493L11.9998 15.5827Z" fill="white"/>
<path fill-rule="evenodd" clip-rule="evenodd" d="M17.2498 4.41602C16.9165 4.08268 16.4165 4.08268 16.0832 4.41602L13.3332 7.16602V5.08268C13.3332 4.41602 12.4998 3.99935 11.9998 4.41602L9.6665 6.33268C9.33317 6.49935 8.99984 6.66602 8.58317 6.66602H6.6665C5.74984 6.66602 4.99984 7.41602 4.99984 8.33268V11.666C4.99984 12.5827 5.74984 13.3327 6.6665 13.3327H7.1665L4.4165 16.0827C4.08317 16.416 4.08317 16.916 4.4165 17.2494C4.74984 17.5827 5.24984 17.5827 5.58317 17.2494L17.2498 5.58268C17.5832 5.24935 17.5832 4.74935 17.2498 4.41602Z" fill="white"/>
</svg>
